<?xml version="1.0" encoding="iso-8859-1"?>
<!-- Generator: Adobe Illustrator 23.0.1, SVG Export Plug-In . SVG Version: 6.00 Build 0)  -->
<svg version="1.1" id="Layer_1" xmlns="http://www.w3.org/2000/svg" xmlns:xlink="http://www.w3.org/1999/xlink" x="0px" y="0px"
	 viewBox="0 0 560 158.17" enable-background="new 0 0 560 158.17" xml:space="preserve">
<g>
	<path fill="#FAFDFF" d="M79.6,120.49c-5.96,0-10.61-1.63-13.96-4.88c-3.35-3.25-5.02-7.6-5.02-13.06V34.92
		c0-2.94-0.42-5.74-1.25-8.42c-0.84-2.67-2.3-4.82-4.39-6.45c-2.09-1.63-5.12-2.44-9.1-2.44c-3.45,0-6.3,0.81-8.55,2.43
		c-2.25,1.62-3.9,3.9-4.94,6.82c-1.05,2.93-1.62,6.27-1.73,10.04v2.2h15.06v13.17H30.67v66.65H13.42V52.27H2.45V39.1h10.98v-4.86
		c0-6.59,1.25-12.21,3.76-16.86c2.51-4.65,6.17-8.23,10.98-10.74c4.81-2.51,10.61-3.76,17.41-3.76c10.87,0,18.98,2.61,24.31,7.84
		c5.33,5.23,8,12.08,8,20.54v63.83c0,3.87,0.6,6.46,1.8,7.76c1.2,1.31,2.74,1.96,4.63,1.96c2.09,0,4.13-0.29,6.12-0.86
		c1.99-0.57,3.55-1.07,4.71-1.49l2.51,14.19c-1.15,0.53-2.8,1.07-4.94,1.6c-2.14,0.53-4.34,1.04-6.59,1.52
		C83.86,120.25,81.69,120.49,79.6,120.49z"/>
	<path fill="#FAFDFF" d="M100.17,87.34V37.53h17.25v46.31c0,7.25,1.33,12.72,4,16.4s6.56,5.52,11.68,5.52c3.24,0,6.4-0.67,9.49-2.01
		c3.08-1.34,5.91-3.33,8.47-5.96c2.56-2.63,4.63-5.8,6.2-9.51V37.53h17.25v62c0,1.87,0.37,3.24,1.1,4.12
		c0.73,0.88,1.93,1.37,3.61,1.48v13.8c-1.78,0.31-3.27,0.5-4.47,0.55c-1.2,0.05-2.22,0.13-3.06,0.24c-3.24-0.11-5.91-0.99-8-2.65
		c-2.09-1.66-3.29-3.84-3.61-6.54l-0.31-7.93c-3.56,5.71-8.29,10.12-14.19,13.23c-5.91,3.11-12.36,4.67-19.37,4.67
		c-8.57,0-15.05-2.8-19.45-8.4C102.37,106.48,100.17,98.23,100.17,87.34z"/>
	<path fill="#FAFDFF" d="M192.09,23.42V4.44h17.25v18.98H192.09z M192.09,118.92V36.9h17.25v82.02H192.09z"/>
	<path fill="#FAFDFF" d="M221.22,78.38c0-7.77,1.59-14.84,4.78-21.21c3.19-6.37,7.55-11.45,13.09-15.23
		c5.54-3.78,11.92-5.67,19.13-5.67c6.38,0,12.1,1.62,17.17,4.86c5.07,3.24,8.96,7.21,11.68,11.92V4.44h17.25v95.03
		c0,1.88,0.37,3.27,1.1,4.16c0.73,0.89,1.93,1.39,3.61,1.49v13.8c-3.14,0.52-5.65,0.84-7.53,0.94c-3.24,0-5.96-0.97-8.16-2.9
		c-2.2-1.93-3.4-4.21-3.61-6.82l-0.16-5.96c-3.24,5.12-7.5,9.12-12.78,12c-5.28,2.87-10.8,4.31-16.54,4.31
		c-5.65,0-10.85-1.12-15.6-3.34c-4.76-2.23-8.89-5.28-12.39-9.17c-3.5-3.88-6.22-8.34-8.16-13.36
		C222.19,89.6,221.22,84.18,221.22,78.38z M287.09,89.67V68.49c-1.15-3.3-3.01-6.23-5.57-8.81c-2.56-2.58-5.44-4.67-8.63-6.26
		c-3.19-1.6-6.41-2.4-9.64-2.4c-3.56,0-6.82,0.77-9.8,2.32c-2.98,1.55-5.54,3.58-7.68,6.11c-2.14,2.53-3.79,5.46-4.94,8.81
		c-1.15,3.35-1.72,6.83-1.72,10.43c0,3.61,0.63,7.06,1.88,10.36c1.25,3.3,3.06,6.21,5.41,8.74c2.35,2.52,5.07,4.48,8.16,5.87
		c3.08,1.39,6.45,2.09,10.11,2.09c2.3,0,4.63-0.38,6.98-1.16c2.35-0.77,4.57-1.88,6.67-3.32c2.09-1.44,3.92-3.17,5.49-5.18
		C285.36,94.08,286.46,91.94,287.09,89.67z"/>
	<path fill="#FAFDFF" d="M379,118.92L352.65,81.5l-13.49,12.63v24.79h-17.25V4.44h17.25v72.38l37.95-39.29h18.5l-31.68,34.15
		l33.56,47.25H379z"/>
	<path fill="#FAFDFF" d="M436.9,120.49c-6.48,0-12.29-1.12-17.41-3.35c-5.12-2.23-9.57-5.29-13.33-9.18
		c-3.76-3.89-6.67-8.35-8.7-13.39c-2.04-5.03-3.06-10.35-3.06-15.95c0-7.75,1.78-14.84,5.33-21.25c3.55-6.41,8.55-11.53,14.98-15.36
		c6.43-3.83,13.83-5.74,22.19-5.74c8.68,0,16.13,1.94,22.35,5.82c6.22,3.88,11.06,8.98,14.51,15.29s5.17,13.09,5.17,20.34
		c0,1.25-0.05,2.41-0.16,3.5c-0.11,1.09-0.21,1.94-0.31,2.56h-65.86c0.52,4.85,1.93,9.06,4.23,12.62c2.3,3.56,5.28,6.35,8.94,8.36
		c3.66,2.01,7.53,3.02,11.6,3.02c4.71,0,9.12-1.15,13.25-3.45c4.13-2.3,6.92-5.33,8.39-9.1l14.74,4.23
		c-1.78,3.97-4.5,7.55-8.16,10.74c-3.66,3.19-7.92,5.7-12.78,7.53C447.95,119.57,442.64,120.49,436.9,120.49z M412.27,72.5h49.56
		c-0.42-4.71-1.75-8.81-4-12.3c-2.25-3.48-5.2-6.23-8.86-8.23c-3.66-2-7.63-3-11.92-3c-4.39,0-8.39,1-12,3
		c-3.61,2-6.56,4.74-8.86,8.23C413.89,63.69,412.59,67.79,412.27,72.5z"/>
	<path fill="#FAFDFF" d="M489.02,138.21c1.57,0.21,3.11,0.44,4.63,0.71c1.51,0.26,2.75,0.34,3.69,0.23c1.78,0.1,3.32-0.36,4.63-1.4
		c1.31-1.04,2.64-3.04,4-5.98c1.36-2.95,2.98-7.17,4.86-12.66l-33.56-81.58h18.04l25.09,64.11l22.27-64.11h16.78l-37.32,100.45
		c-1.05,3.12-2.69,5.92-4.94,8.42c-2.25,2.49-5.02,4.47-8.31,5.93c-3.29,1.46-7.08,2.13-11.37,2.03c-1.25,0.1-2.56,0.05-3.92-0.16
		c-1.36-0.21-2.88-0.52-4.55-0.94V138.21z"/>
</g>
</svg>
